<?xml version="1.0" standalone="no"?>
<!DOCTYPE svg PUBLIC "-//W3C//DTD SVG 20010904//EN"
 "http://www.w3.org/TR/2001/REC-SVG-20010904/DTD/svg10.dtd">
<svg version="1.0" xmlns="http://www.w3.org/2000/svg"
 width="692.000000pt" height="750.000000pt" viewBox="0 0 692.000000 750.000000"
 preserveAspectRatio="xMidYMid meet">
<metadata>
Created by potrace 1.15, written by Peter Selinger 2001-2017
</metadata>
<g transform="translate(0.000000,750.000000) scale(0.100000,-0.100000)"
fill="#000000" stroke="none">
<path d="M3302 7480 c-291 -105 -415 -447 -258 -714 33 -57 132 -149 194 -180
144 -73 309 -74 451 -2 59 30 147 110 181 164 l25 39 75 -50 c318 -215 616
-676 816 -1261 158 -464 248 -944 285 -1516 15 -232 6 -805 -15 -1020 -41
-402 -109 -771 -202 -1085 -41 -137 -39 -170 7 -209 41 -35 97 -35 137 -1 23
20 36 48 65 147 100 341 174 745 214 1168 24 263 25 939 0 1200 -48 511 -136
941 -276 1360 -137 406 -296 724 -500 995 -138 182 -347 375 -501 462 -49 27
-50 29 -50 74 0 66 -33 165 -78 235 -60 92 -136 152 -245 192 -78 30 -246 31
-325 2z m250 -206 c105 -35 178 -137 178 -248 0 -81 -17 -129 -64 -183 -126
-143 -359 -117 -440 50 -54 110 -41 220 36 304 81 87 183 114 290 77z"/>
<path d="M1475 5948 c-550 -55 -966 -300 -1140 -671 -165 -351 -127 -779 114
-1272 91 -184 112 -210 178 -210 38 0 49 5 74 33 42 47 39 90 -14 189 -102
188 -178 392 -213 568 -27 130 -24 343 5 450 106 395 454 634 1013 694 215 24
589 8 828 -34 123 -22 137 -20 176 19 45 45 47 101 6 147 -26 29 -35 32 -177
54 -281 44 -616 57 -850 33z"/>
<path d="M5153 5944 c-32 -16 -63 -66 -63 -101 0 -24 34 -79 57 -91 10 -5 72
-13 138 -16 437 -25 743 -135 951 -341 118 -117 185 -243 220 -415 20 -101 15
-310 -11 -430 -69 -320 -263 -690 -543 -1039 -47 -58 -89 -117 -94 -133 -14
-40 7 -95 46 -119 71 -43 109 -21 230 132 302 380 500 767 577 1129 19 87 23
135 23 285 0 163 -3 189 -27 280 -50 187 -137 337 -271 470 -241 240 -607 373
-1096 399 -85 5 -111 3 -137 -10z"/>
<path d="M4140 5815 c-549 -144 -1054 -354 -1582 -656 -1363 -781 -2318 -1945
-2318 -2823 l0 -112 -49 -36 c-87 -65 -155 -167 -181 -270 -7 -28 -11 -91 -8
-150 3 -94 7 -110 39 -178 45 -93 95 -152 173 -202 159 -102 373 -105 527 -7
140 89 229 250 229 413 -1 261 -205 477 -463 489 l-58 2 6 80 c25 319 146 632
381 985 477 717 1355 1424 2340 1884 349 163 671 280 1028 371 225 58 251 71
262 131 8 41 0 66 -33 98 -37 37 -94 33 -293 -19z m-3532 -3781 c60 -30 116
-95 133 -158 15 -55 7 -152 -16 -200 -82 -170 -320 -201 -445 -58 -64 72 -84
163 -56 256 49 163 225 236 384 160z"/>
<path d="M3394 3910 c-105 -22 -203 -99 -251 -198 -25 -50 -28 -68 -28 -152 0
-81 4 -103 26 -150 35 -75 98 -136 177 -173 58 -28 78 -32 147 -31 64 0 91 5
137 26 80 37 149 105 184 181 25 53 29 75 29 147 0 76 -3 93 -33 152 -72 146
-237 230 -388 198z"/>
<path d="M1063 3321 c-45 -28 -61 -85 -38 -134 22 -48 376 -394 555 -543 1077
-899 2473 -1474 3576 -1474 362 0 647 55 896 172 l107 50 33 -20 c145 -89 362
-82 514 16 77 50 128 109 173 202 33 70 36 83 39 185 3 93 1 120 -18 174 -86
255 -359 393 -617 311 -151 -48 -287 -201 -323 -361 -18 -82 -9 -200 22 -277
l26 -63 -56 -25 c-246 -110 -486 -149 -866 -141 -268 5 -429 24 -702 83 -448
95 -880 251 -1359 489 -665 330 -1213 720 -1695 1207 -140 142 -162 160 -196
164 -28 4 -48 -1 -71 -15z m5493 -1283 c85 -40 154 -148 154 -243 0 -100 -69
-205 -162 -245 -64 -28 -153 -30 -215 -5 -54 22 -135 109 -151 162 -15 52 -15
138 2 184 52 146 227 216 372 147z"/>
<path d="M2014 1646 c-41 -18 -64 -52 -64 -94 0 -80 203 -530 334 -740 145
-233 331 -444 509 -578 123 -93 289 -176 422 -210 92 -23 113 -25 275 -22 172
4 177 5 285 41 252 87 478 254 677 501 92 113 203 279 219 325 15 43 -5 97
-45 122 -72 44 -114 20 -208 -123 -337 -512 -745 -736 -1149 -633 -94 24 -252
103 -344 172 -290 216 -573 644 -745 1123 -38 107 -96 147 -166 116z"/>
</g>
</svg>
